{"accessors" : [{"bufferView" : 0, "byteOffset" : 0, "componentType" : 5123, "count" : 46737, "type" : "SCALAR", "max" : [9624], "min" : [0]}, {"bufferView" : 1, "byteOffset" : 0, "componentType" : 5126, "count" : 9625, "type" : "VEC3", "max" : [1.2667089700698853, 3.7148830890655518, 0.3877350091934204], "min" : [-1.26385498046875, 0.00014000000373926014, -0.4159800112247467], "name" : "POSITION"}, {"bufferView" : 1, "byteOffset" : 12, "componentType" : 5126, "count" : 9625, "type" : "VEC3", "max" : [1.0000044107437134, 0.9999907612800598, 1.0000042915344238], "min" : [-1.0000044107437134, -0.9999019503593445, -0.9999767541885376], "name" : "NORMAL"}, {"bufferView" : 1, "byteOffset" : 24, "componentType" : 5126, "count" : 9625, "type" : "VEC2", "max" : [1.0087889432907104, 1.0009770393371582], "min" : [0, -0.0018030405044555664], "name" : "TEXCOORD_0"}, {"bufferView" : 0, "byteOffset" : 93476, "componentType" : 5123, "count" : 708, "type" : "SCALAR", "max" : [707], "min" : [0]}, {"bufferView" : 2, "byteOffset" : 0, "componentType" : 5126, "count" : 708, "type" : "VEC3", "max" : [0.8752070069313049, 2.606537103652954, 0.6402459740638733], "min" : [-0.8278560042381287, 0.37955600023269653, -0.5458660125732422], "name" : "POSITION"}, {"bufferView" : 2, "byteOffset" : 12, "componentType" : 5126, "count" : 708, "type" : "VEC3", "max" : [0.9964603185653687, 0.4544164538383484, 0.99737149477005], "min" : [-0.9964932799339294, -0.43849414587020874, -0.9967994689941406], "name" : "NORMAL"}, {"bufferView" : 2, "byteOffset" : 24, "componentType" : 5126, "count" : 708, "type" : "VEC2", "max" : [0.9716629981994629, 0.9788450002670288], "min" : [0.11016199737787247, 0.32464301586151123], "name" : "TEXCOORD_0"}, {"bufferView" : 0, "byteOffset" : 94892, "componentType" : 5123, "count" : 1002, "type" : "SCALAR", "max" : [1001], "min" : [0]}, {"bufferView" : 3, "byteOffset" : 0, "componentType" : 5126, "count" : 1002, "type" : "VEC3", "max" : [1.1935689449310303, 3.1089959144592285, 0.4164310097694397], "min" : [-1.204421043395996, 2.0093579292297363, -0.5717779994010925], "name" : "POSITION"}, {"bufferView" : 3, "byteOffset" : 12, "componentType" : 5126, "count" : 1002, "type" : "VEC3", "max" : [0.9449525475502014, 0.9956313967704773, 0.9950100183486938], "min" : [-0.9491665959358215, -0.9785187244415283, -0.9962825179100037], "name" : "NORMAL"}, {"bufferView" : 3, "byteOffset" : 24, "componentType" : 5126, "count" : 1002, "type" : "VEC2", "max" : [0.9593430161476135, 0.8930339813232422], "min" : [0.03127799928188324, 0.02608102560043335], "name" : "TEXCOORD_0"}, {"bufferView" : 4, "byteOffset" : 0, "componentType" : 5126, "normalized" : false, "count" : 596, "type" : "SCALAR", "max" : [9.916666666666668], "min" : [0]}, {"bufferView" : 4, "byteOffset" : 2384, "componentType" : 5126, "normalized" : false, "count" : 596, "type" : "VEC3", "max" : [0.23512770235538483, 1.9119055271148682, 0.06976109743118286], "min" : [-0.1123136579990387, 1.8733092546463013, -0.001902768388390541]}], "animations" : [{"channels" : [{"sampler" : 0, "target" : {"node" : -1, "path" : "translation"}}], "samplers" : [{"input" : 12, "interpolation" : "CUBICSPLINE", "output" : 13}], "name" : "mixamo.com"}], "asset" : {"generator" : "Aspose.3D 24.2.0", "version" : "2.0"}, "buffers" : [{"uri" : "buffer.bin", "byteLength" : 469172}], "bufferViews" : [{"buffer" : 0, "byteOffset" : 0, "byteLength" : 96896, "target" : 34963}, {"buffer" : 0, "byteOffset" : 96900, "byteLength" : 308000, "byteStride" : 32, "target" : 34962}, {"buffer" : 0, "byteOffset" : 404904, "byteLength" : 22656, "byteStride" : 32, "target" : 34962}, {"buffer" : 0, "byteOffset" : 427564, "byteLength" : 32064, "byteStride" : 32, "target" : 34962}, {"buffer" : 0, "byteOffset" : 459632, "byteLength" : 9536}], "meshes" : [{"primitives" : [{"attributes" : {"POSITION" : 1, "NORMAL" : 2, "TEXCOORD_0" : 3}, "indices" : 0, "mode" : 4}], "name" : "Harry_Potter.001mesh"}, {"primitives" : [{"attributes" : {"POSITION" : 5, "NORMAL" : 6, "TEXCOORD_0" : 7}, "indices" : 4, "mode" : 4}], "name" : "mesh0001_mesh0001.005mesh"}, {"primitives" : [{"attributes" : {"POSITION" : 9, "NORMAL" : 10, "TEXCOORD_0" : 11}, "indices" : 8, "mode" : 4}], "name" : "mesh0000_mesh0000.005mesh"}], "nodes" : [{"mesh" : 0, "name" : "Harry_Potter.001"}, {"mesh" : 1, "name" : "mesh0001_mesh0001.005"}, {"mesh" : 2, "name" : "mesh0000_mesh0000.005"}], "scene" : 0, "scenes" : [{"nodes" : [0, 1, 2]}]}